<svg xmlns="http://www.w3.org/2000/svg" viewBox="0 0 41.02 41.02"><defs><style>.cls-1{fill:#f0ece6;}.cls-2{fill:#eae5e3;}</style></defs><title>Fichier 4</title><g id="Calque_2" data-name="Calque 2"><g id="Calque_1-2" data-name="Calque 1"><path class="cls-1" d="M41,38.4a9.11,9.11,0,0,1-12.8,0A9,9,0,0,1,15.43,25.6,9.05,9.05,0,0,1,2.62,12.8,9.11,9.11,0,0,1,2.62,0Z"/><path class="cls-2" d="M41,38.4a9.11,9.11,0,0,1-12.8,0A9,9,0,0,1,15.43,25.6,9.05,9.05,0,0,1,2.62,12.8,9.11,9.11,0,0,1,2.62,0Z"/></g></g></svg>