<svg xmlns="http://www.w3.org/2000/svg" viewBox="0 0 18.2 21.4"><defs><style>.cls-1{fill:#1d1d1b;}</style></defs><title>Fichier 2</title><g id="Calque_2" data-name="Calque 2"><g id="Calque_1-2" data-name="Calque 1"><path class="cls-1" d="M9.1,8.7C5.7,8.7,3,6,1,4L.6,3.6a2.17,2.17,0,0,1,0-3,2.17,2.17,0,0,1,3,0L4,1C5.5,2.5,7.5,4.5,9.1,4.5s3.7-2,5.1-3.5l.4-.4a2.17,2.17,0,0,1,3,0,2.17,2.17,0,0,1,0,3l-.4.4C15.2,6,12.5,8.7,9.1,8.7Z"/><path class="cls-1" d="M9.1,17.6A2.05,2.05,0,0,1,7,15.5V6.6A2.05,2.05,0,0,1,9.1,4.5a2.05,2.05,0,0,1,2.1,2.1v8.9A2.11,2.11,0,0,1,9.1,17.6Z"/><circle class="cls-1" cx="9.1" cy="16.4" r="5"/></g></g></svg>