<?xml version="1.0" encoding="utf-8"?>
<!-- Generator: Adobe Illustrator 22.0.1, SVG Export Plug-In . SVG Version: 6.00 Build 0)  -->
<svg version="1.1" id="Calque_1" xmlns="http://www.w3.org/2000/svg" xmlns:xlink="http://www.w3.org/1999/xlink" x="0px" y="0px"
	 viewBox="0 0 595.3 841.9" style="enable-background:new 0 0 595.3 841.9;" xml:space="preserve">
<metadata><?xpacket begin="﻿" id="W5M0MpCehiHzreSzNTczkc9d"?>
<x:xmpmeta xmlns:x="adobe:ns:meta/" x:xmptk="Adobe XMP Core 5.6-c143 79.161210, 2017/08/11-10:28:36        ">
   <rdf:RDF xmlns:rdf="http://www.w3.org/1999/02/22-rdf-syntax-ns#">
      <rdf:Description rdf:about=""/>
   </rdf:RDF>
</x:xmpmeta>
                                                                                                    
                                                                                                    
                                                                                                    
                                                                                                    
                                                                                                    
                                                                                                    
                                                                                                    
                                                                                                    
                                                                                                    
                                                                                                    
                                                                                                    
                                                                                                    
                                                                                                    
                                                                                                    
                                                                                                    
                                                                                                    
                                                                                                    
                                                                                                    
                                                                                                    
                                                                                                    
                           
<?xpacket end="w"?></metadata>
<style type="text/css">
	.st0{fill:#FFB1B9;}
	.st1{fill:#F0ECE6;}
	.st2{fill:#FFFFFF;}
	.st3{fill:#1D1D1B;}
	.st4{fill:url(#SVGID_1_);}
	.st5{fill:none;stroke:#1D1D1B;stroke-width:4.1555;stroke-linecap:round;stroke-linejoin:round;stroke-miterlimit:10;}
</style>
<rect x="238.9" y="236.4" class="st0" width="118.6" height="118.6"/>
<polygon class="st1" points="357.5,236.4 238.9,236.4 260,218.1 336.3,218.1 "/>
<circle class="st2" cx="273.1" cy="290.1" r="8.9"/>
<circle class="st3" cx="277" cy="290.1" r="5"/>
<path class="st3" d="M298.3,333.8c-3.4,0-6.1-2.7-8.1-4.7l-0.4-0.4c-0.8-0.8-0.8-2.1,0-3c0.8-0.8,2.1-0.8,3,0l0.4,0.4
	c1.5,1.5,3.5,3.5,5.1,3.5c1.7,0,3.7-2,5.1-3.5l0.4-0.4c0.8-0.8,2.1-0.8,3,0c0.8,0.8,0.8,2.1,0,3l-0.4,0.4
	C304.4,331.1,301.7,333.8,298.3,333.8z"/>
<path class="st3" d="M298.3,342.7c-3.2,0-6.2-1.2-8.5-3.5c-0.8-0.8-0.8-2.1,0-3c0.8-0.8,2.1-0.8,3,0c1.5,1.5,3.4,2.3,5.5,2.3
	s4-0.8,5.5-2.3c0.8-0.8,2.1-0.8,3,0c0.8,0.8,0.8,2.1,0,3C304.5,341.5,301.5,342.7,298.3,342.7z"/>
<path class="st3" d="M298.3,342.7c-1.2,0-2.1-0.9-2.1-2.1v-8.9c0-1.2,0.9-2.1,2.1-2.1s2.1,0.9,2.1,2.1v8.9
	C300.4,341.8,299.4,342.7,298.3,342.7z"/>
<radialGradient id="SVGID_1_" cx="189.4185" cy="305.816" r="117.5122" gradientTransform="matrix(0.4996 0 0 0.3101 203.5242 178.7956)" gradientUnits="userSpaceOnUse">
	<stop  offset="0" style="stop-color:#FFFFFF"/>
	<stop  offset="0.5942" style="stop-color:#FEFEFD"/>
	<stop  offset="0.808" style="stop-color:#FAF8F6"/>
	<stop  offset="0.9601" style="stop-color:#F3EFEB"/>
	<stop  offset="1" style="stop-color:#F0ECE6"/>
</radialGradient>
<path class="st4" d="M357.5,236.4c0,10.9-8.8,19.8-19.8,19.8c0,10.9-8.8,19.8-19.8,19.8s-19.8-8.8-19.8-19.8
	c0,10.9-8.8,19.8-19.8,19.8s-19.8-8.8-19.8-19.8c-10.9,0-19.8-8.8-19.8-19.8H357.5z"/>
<polyline class="st5" points="328.6,285.1 316.5,293.9 330.2,293.9 "/>
</svg>
