<?xml version="1.0" encoding="utf-8"?>
<!-- Generator: Adobe Illustrator 22.0.1, SVG Export Plug-In . SVG Version: 6.00 Build 0)  -->
<svg version="1.1" id="Calque_1" xmlns="http://www.w3.org/2000/svg" xmlns:xlink="http://www.w3.org/1999/xlink" x="0px" y="0px"
	 viewBox="0 0 181.3 173" style="enable-background:new 0 0 181.3 173;" xml:space="preserve">
<metadata><?xpacket begin="﻿" id="W5M0MpCehiHzreSzNTczkc9d"?>
<x:xmpmeta xmlns:x="adobe:ns:meta/" x:xmptk="Adobe XMP Core 5.6-c143 79.161210, 2017/08/11-10:28:36        ">
   <rdf:RDF xmlns:rdf="http://www.w3.org/1999/02/22-rdf-syntax-ns#">
      <rdf:Description rdf:about=""/>
   </rdf:RDF>
</x:xmpmeta>





















<?xpacket end="w"?></metadata>
<style type="text/css">
	.st0{fill:#F5AEB8;}
	.st1{fill:#1D1D1B;}
	.st2{fill:#FFFFFF;}
	.st3{fill:#1E1E1C;}
	.st4{fill:#F1ECE6;}
	.st5{fill:url(#SVGID_1_);}
</style>
<rect x="31.9" y="54.4" class="st0" width="118.6" height="118.6"/>
<polygon class="st1" points="150.5,54.4 31.9,54.4 53,36.1 129.3,36.1 "/>
<circle class="st2" cx="66.1" cy="108.1" r="8.9"/>
<circle class="st3" cx="66.1" cy="104.2" r="5"/>
<circle class="st2" cx="116.2" cy="108.1" r="8.9"/>
<circle class="st3" cx="116.2" cy="104.2" r="5"/>
<path class="st3" d="M91.3,151.8c-3.4,0-6.1-2.7-8.1-4.7l-0.4-0.4c-0.8-0.8-0.8-2.1,0-3c0.8-0.8,2.1-0.8,3,0l0.4,0.4
	c1.5,1.5,3.5,3.5,5.1,3.5c1.7,0,3.7-2,5.1-3.5l0.4-0.4c0.8-0.8,2.1-0.8,3,0c0.8,0.8,0.8,2.1,0,3l-0.4,0.4
	C97.4,149.1,94.7,151.8,91.3,151.8z"/>
<path class="st3" d="M91.3,160.7c-3.2,0-6.2-1.2-8.5-3.5c-0.8-0.8-0.8-2.1,0-3c0.8-0.8,2.1-0.8,3,0c1.5,1.5,3.4,2.3,5.5,2.3
	s4-0.8,5.5-2.3c0.8-0.8,2.1-0.8,3,0c0.8,0.8,0.8,2.1,0,3C97.5,159.5,94.5,160.7,91.3,160.7z"/>
<path class="st3" d="M91.3,160.7c-1.2,0-2.1-0.9-2.1-2.1v-8.9c0-1.2,0.9-2.1,2.1-2.1s2.1,0.9,2.1,2.1v8.9
	C93.4,159.8,92.4,160.7,91.3,160.7z"/>
<polygon class="st4" points="115.1,11.4 67.2,11.4 53,36.1 129.3,36.1 "/>
<polygon class="st4" points="171.6,29.7 150.4,11.4 129.3,36.1 150.5,54.4 "/>
<polygon class="st4" points="53,36.1 31.9,54.4 10.8,29.7 31.9,11.4 "/>
<radialGradient id="SVGID_1_" cx="-16.6953" cy="-52.352" r="117.5687" gradientTransform="matrix(0.4996 0 0 -0.3101 99.441 75.3939)" gradientUnits="userSpaceOnUse">
	<stop  offset="0" style="stop-color:#FFFFFF"/>
	<stop  offset="0.5942" style="stop-color:#FEFEFD"/>
	<stop  offset="0.808" style="stop-color:#FAF8F6"/>
	<stop  offset="0.9601" style="stop-color:#F4EFEB"/>
	<stop  offset="1" style="stop-color:#F1ECE6"/>
</radialGradient>
<path class="st5" d="M150.5,54.4c0,10.9-8.8,19.8-19.8,19.8c0,10.9-8.8,19.8-19.8,19.8s-19.8-8.8-19.8-19.8
	c0,10.9-8.8,19.8-19.8,19.8s-19.8-8.8-19.8-19.8c-10.9,0-19.8-8.8-19.8-19.8H150.5z"/>
</svg>
