<svg id="Calque_1" xmlns="http://www.w3.org/2000/svg" viewBox="0 0 249.5 118.6"><style>.st0{fill:#1d1d1b}.st1{fill:#ffb2b9}</style><path class="st0" d="M18 61.4H5.3c-1.5 0-2.7-.5-3.8-1.5-1-1-1.5-2.3-1.5-3.8V5.3c0-1.5.5-2.7 1.5-3.8C2.5.5 3.8 0 5.3 0H18c5 0 9.3 1.7 12.8 5.2S36 13 36 18v25.4c0 5-1.7 9.3-5.2 12.8S23 61.4 18 61.4zm-7.4-50.8v40.2H18c2 0 3.8-.7 5.2-2.2 1.5-1.4 2.2-3.2 2.2-5.2V18c0-2-.7-3.8-2.2-5.2-1.5-1.5-3.2-2.2-5.2-2.2h-7.4zM86.9 39.2c-2 0-3.6-1.1-5.1-3.2l-8.7-13.2v33.3c0 1.5-.5 2.7-1.5 3.8-1 1-2.3 1.5-3.8 1.5s-2.7-.5-3.8-1.5c-1-1-1.5-2.3-1.5-3.8V5.3c0-1.5.5-2.7 1.5-3.8 1-1 2.3-1.5 3.8-1.5 1.9 0 3.4.8 4.5 2.5l14.6 21.8 14.6-21.8C102.6.9 104.1 0 106 0c1.5 0 2.7.5 3.8 1.5 1 1 1.5 2.3 1.5 3.8v50.8c0 1.5-.5 2.7-1.5 3.8-1 1-2.3 1.5-3.8 1.5s-2.7-.5-3.8-1.5c-1-1-1.5-2.3-1.5-3.8V22.8L92 36c-1.4 2.1-3.1 3.2-5.1 3.2zM150.6 50.8V13.2l-3.6 1.2c-.9.3-1.6.5-2.4.5-1.5 0-2.7-.5-3.8-1.5-1-1-1.5-2.3-1.5-3.8 0-2.4 1.2-4.1 3.6-5.1L154 .4c.7-.2 1.3-.4 1.9-.4 1.5 0 2.7.5 3.8 1.5 1 1 1.5 2.3 1.5 3.8v45.5h7.4c1.5 0 2.7.5 3.8 1.5 1 1 1.5 2.3 1.5 3.8s-.5 2.7-1.5 3.8c-1 1-2.3 1.5-3.8 1.5h-25.4c-1.5 0-2.7-.5-3.8-1.5-1-1-1.5-2.3-1.5-3.8s.5-2.7 1.5-3.8c1-1 2.3-1.5 3.8-1.5h7.4zM225.1 39.2c-2 0-3.6-1.1-5.1-3.2l-8.7-13.2v33.3c0 1.5-.5 2.7-1.5 3.8-1 1-2.3 1.5-3.8 1.5s-2.7-.5-3.8-1.5c-1-1-1.5-2.3-1.5-3.8V5.3c0-1.5.5-2.7 1.5-3.8 1-1 2.3-1.5 3.8-1.5 1.9 0 3.4.8 4.5 2.5l14.6 21.8 14.6-21.8c1.1-1.6 2.6-2.5 4.5-2.5 1.5 0 2.7.5 3.8 1.5 1 1 1.5 2.3 1.5 3.8v50.8c0 1.5-.5 2.7-1.5 3.8-1 1-2.3 1.5-3.8 1.5s-2.7-.5-3.8-1.5c-1-1-1.5-2.3-1.5-3.8V22.8L230.1 36c-1.4 2.1-3.1 3.2-5 3.2z"/><g><path class="st0" d="M3.6 97.6H1.1c-.3 0-.5-.1-.8-.3-.2-.3-.3-.5-.3-.8V86.3c0-.3.1-.5.3-.8.2-.2.5-.3.8-.3h2.5c1 0 1.9.3 2.6 1s1 1.5 1 2.6V94c0 1-.3 1.9-1 2.6s-1.6 1-2.6 1zM2.1 87.4v8h1.5c.4 0 .8-.1 1-.4.3-.3.4-.6.4-1v-5.1c0-.4-.1-.8-.4-1-.3-.3-.6-.4-1-.4H2.1zM13.3 85.3h5.1c.3 0 .5.1.8.3.2.2.3.5.3.8s-.1.5-.3.8c-.2.2-.5.3-.8.3h-4v3h2.8c.3 0 .5.1.8.3.2.2.3.5.3.8 0 .3-.1.5-.3.8s-.5.3-.8.3h-2.8v3h4c.3 0 .5.1.8.3.2.2.3.5.3.8 0 .3-.1.5-.3.8-.2.2-.5.3-.8.3h-5.1c-.3 0-.5-.1-.8-.3-.2-.2-.3-.5-.3-.8V86.3c0-.3.1-.5.3-.8.3-.1.5-.2.8-.2zM28.2 92.5c-1 0-1.9-.3-2.6-1-.7-.7-1-1.5-1-2.6 0-1 .3-1.9 1-2.6s1.5-1 2.6-1h1.9c.3 0 .5.1.8.3.2.2.3.5.3.8s-.1.5-.3.8-.5.3-.8.3h-1.9c-.4 0-.8.1-1 .4-.3.3-.4.6-.4 1s.1.8.4 1c.3.3.6.4 1 .4 1 0 1.9.3 2.6 1 .7.7 1 1.5 1 2.6 0 1-.3 1.9-1 2.6s-1.5 1-2.6 1h-2.5c-.3 0-.5-.1-.8-.3-.2-.2-.3-.5-.3-.8 0-.3.1-.5.3-.8s.5-.3.8-.3h2.5c.4 0 .8-.1 1-.4.3-.3.4-.6.4-1s-.1-.8-.4-1c-.3-.3-.6-.4-1-.4zM39 95.4v-8h-1.5c-.3 0-.5-.1-.8-.3s-.3-.5-.3-.8.1-.5.3-.8c.2-.2.5-.3.8-.3h5.1c.3 0 .5.1.8.3.2.2.3.5.3.8s-.1.5-.3.8c-.2.2-.5.3-.8.3h-1.5v8h1.5c.3 0 .5.1.8.3.2.2.3.5.3.8 0 .3-.1.5-.3.8-.2.2-.5.3-.8.3h-5.1c-.3 0-.5-.1-.8-.3-.2-.2-.3-.5-.3-.8 0-.3.1-.5.3-.8s.5-.3.8-.3H39zM53.4 94v-2.5c0-.3.1-.5.3-.8.2-.2.5-.3.8-.3s.5.1.8.3c.2.2.3.5.3.8V94c0 1-.3 1.9-1 2.6-.7.7-1.5 1-2.6 1-1 0-1.9-.3-2.6-1-.7-.7-1-1.5-1-2.6v-5.1c0-1 .3-1.9 1-2.6.7-.7 1.5-1 2.6-1h1.9c.3 0 .5.1.8.3.2.2.3.5.3.8s-.1.5-.3.8-.5.3-.8.3H52c-.4 0-.8.1-1 .4s-.4.6-.4 1V94c0 .4.1.8.4 1s.6.4 1 .4.8-.1 1-.4.4-.6.4-1zM62.6 85.9l4 6.8v-6.3c0-.3.1-.6.3-.8.2-.2.5-.3.8-.3.3 0 .5.1.8.3.2.2.3.5.3.8v10.2c0 .3-.1.5-.3.8-.2.2-.5.3-.8.3-.4 0-.7-.2-.9-.6l-3.9-6.7v6.2c0 .3-.1.5-.3.8-.2.2-.5.3-.8.3s-.5-.1-.8-.3c-.2-.2-.3-.5-.3-.8V86.3c0-.3.1-.5.3-.8.2-.2.4-.3.7-.3.3.1.7.3.9.7zM78.6 92.5h-3.8c-.3 0-.5-.1-.8-.3s-.3-.5-.3-.8c0-.3.1-.5.3-.8.2-.2.5-.3.8-.3h3.8c.3 0 .5.1.8.3.2.2.3.5.3.8 0 .3-.1.5-.3.8-.3.2-.5.3-.8.3zM89.6 93.1c-.4 0-.7-.2-1-.6l-1.7-2.6v6.7c0 .3-.1.5-.3.8-.2.2-.5.3-.8.3s-.5-.1-.8-.3c-.2-.2-.3-.5-.3-.8V86.3c0-.3.1-.5.3-.8.2-.2.5-.3.8-.3.4 0 .7.2.9.5l2.9 4.4 2.9-4.4c.2-.3.5-.5.9-.5.3 0 .5.1.8.3.2.2.3.5.3.8v10.2c0 .3-.1.5-.3.8-.2.2-.5.3-.8.3-.3 0-.5-.1-.8-.3-.2-.2-.3-.5-.3-.8v-6.7l-1.7 2.6c-.3.5-.6.7-1 .7zM106.8 88.9V94c0 1-.3 1.9-1 2.6-.7.7-1.5 1-2.6 1-1 0-1.9-.3-2.6-1-.7-.7-1-1.5-1-2.6v-5.1c0-1 .3-1.9 1-2.6.7-.7 1.5-1 2.6-1 1 0 1.9.3 2.6 1 .6.7 1 1.6 1 2.6zm-2.2 5.1v-5.1c0-.4-.1-.8-.4-1s-.6-.4-1-.4-.8.1-1 .4-.4.6-.4 1V94c0 .4.1.8.4 1s.6.4 1 .4.8-.1 1-.4.4-.6.4-1zM113.9 95.4v-8h-1.5c-.3 0-.5-.1-.8-.3s-.3-.5-.3-.8.1-.5.3-.8c.2-.2.5-.3.8-.3h5.1c.3 0 .5.1.8.3.2.2.3.5.3.8s-.1.5-.3.8-.5.3-.8.3H116v8h1.5c.3 0 .5.1.8.3s.3.5.3.8c0 .3-.1.5-.3.8-.2.2-.5.3-.8.3h-5.1c-.3 0-.5-.1-.8-.3-.2-.2-.3-.5-.3-.8 0-.3.1-.5.3-.8s.5-.3.8-.3h1.5zM135.9 94v-7.6c0-.3.1-.5.3-.8.2-.2.5-.3.8-.3s.5.1.8.3c.2.2.3.5.3.8V94c0 1-.3 1.9-1 2.6s-1.5 1-2.6 1-1.9-.3-2.6-1-1-1.5-1-2.6v-7.6c0-.3.1-.5.3-.8.2-.2.5-.3.8-.3s.5.1.8.3c.2.2.3.5.3.8V94c0 .4.1.8.4 1 .3.3.6.4 1 .4s.8-.1 1-.4c.3-.3.4-.6.4-1zM145.1 85.9l4 6.8v-6.3c0-.3.1-.6.3-.8.2-.2.5-.3.8-.3s.5.1.8.3c.2.2.3.5.3.8v10.2c0 .3-.1.5-.3.8-.2.2-.5.3-.8.3-.4 0-.7-.2-.9-.6l-3.9-6.7v6.2c0 .3-.1.5-.3.8-.2.2-.5.3-.8.3-.3 0-.5-.1-.8-.3-.2-.2-.3-.5-.3-.8V86.3c0-.3.1-.5.3-.8.2-.2.4-.3.7-.3.4.1.7.3.9.7zM168.4 93.1c-.4 0-.7-.2-1-.6l-1.7-2.6v6.7c0 .3-.1.5-.3.8-.2.2-.5.3-.8.3-.3 0-.5-.1-.8-.3-.2-.2-.3-.5-.3-.8V86.3c0-.3.1-.5.3-.8.2-.2.5-.3.8-.3.4 0 .7.2.9.5l2.9 4.4 2.9-4.4c.2-.3.5-.5.9-.5.3 0 .5.1.8.3.2.2.3.5.3.8v10.2c0 .3-.1.5-.3.8-.2.2-.5.3-.8.3s-.5-.1-.8-.3c-.2-.2-.3-.5-.3-.8v-6.7l-1.7 2.6c-.3.5-.7.7-1 .7zM185.5 88.9V94c0 1-.3 1.9-1 2.6s-1.5 1-2.6 1-1.9-.3-2.6-1-1-1.5-1-2.6v-5.1c0-1 .3-1.9 1-2.6s1.5-1 2.6-1 1.9.3 2.6 1 1 1.6 1 2.6zm-2.1 5.1v-5.1c0-.4-.1-.8-.4-1-.3-.3-.6-.4-1-.4s-.8.1-1 .4c-.3.3-.4.6-.4 1V94c0 .4.1.8.4 1 .3.3.6.4 1 .4s.8-.1 1-.4c.3-.3.4-.6.4-1zM195.7 94v-7.6c0-.3.1-.5.3-.8.2-.2.5-.3.8-.3s.5.1.8.3c.2.2.3.5.3.8V94c0 1-.3 1.9-1 2.6-.7.7-1.5 1-2.6 1-1 0-1.9-.3-2.6-1-.7-.7-1-1.5-1-2.6v-7.6c0-.3.1-.5.3-.8.2-.2.5-.3.8-.3.3 0 .5.1.8.3.2.2.3.5.3.8V94c0 .4.1.8.4 1s.6.4 1 .4.8-.1 1-.4.4-.6.4-1zM205.8 87.4h-1.9c-.3 0-.5-.1-.8-.3s-.3-.5-.3-.8.1-.5.3-.8c.2-.2.5-.3.8-.3h5.9c.3 0 .5.1.8.3.2.2.3.5.3.8s-.1.5-.3.8c-.2.2-.5.3-.8.3H208v9.1c0 .3-.1.5-.3.8-.2.2-.5.3-.8.3-.3 0-.5-.1-.8-.3-.2-.2-.3-.5-.3-.8v-9.1zM222.8 88.9V94c0 1-.3 1.9-1 2.6-.7.7-1.5 1-2.6 1-1 0-1.9-.3-2.6-1-.7-.7-1-1.5-1-2.6v-5.1c0-1 .3-1.9 1-2.6.7-.7 1.5-1 2.6-1 1 0 1.9.3 2.6 1 .6.7 1 1.6 1 2.6zm-2.1 5.1v-5.1c0-.4-.1-.8-.4-1s-.6-.4-1-.4-.8.1-1 .4-.4.6-.4 1V94c0 .4.1.8.4 1s.6.4 1 .4.8-.1 1-.4.4-.6.4-1zM229.9 85.9l4 6.8v-6.3c0-.3.1-.6.3-.8.2-.2.5-.3.8-.3.3 0 .5.1.8.3.2.2.3.5.3.8v10.2c0 .3-.1.5-.3.8-.2.2-.5.3-.8.3-.4 0-.7-.2-.9-.6l-3.9-6.7v6.2c0 .3-.1.5-.3.8-.2.2-.5.3-.8.3s-.5-.1-.8-.3c-.2-.2-.3-.5-.3-.8V86.3c0-.3.1-.5.3-.8.2-.2.4-.3.7-.3.3.1.7.3.9.7z"/><path class="st1" d="M247.6 85.6c.2-.2.5-.3.8-.3s.5.1.8.3c.2.2.3.5.3.8v5.9c0 .3-.1.5-.3.8-.2.2-.5.3-.8.3s-.5-.1-.8-.3c-.2-.2-.3-.5-.3-.8v-5.9c0-.4.1-.6.3-.8zm0 10.1c.2-.2.5-.3.8-.3s.5.1.8.3.3.5.3.8c0 .3-.1.5-.3.8-.2.2-.5.3-.8.3s-.5-.1-.8-.3c-.2-.2-.3-.5-.3-.8 0-.3.1-.5.3-.8z"/><g><path class="st1" d="M246.6 118.6H2.8c-1.6 0-2.8-1.3-2.8-2.8s1.3-2.8 2.8-2.8h243.8c1.6 0 2.8 1.3 2.8 2.8s-1.2 2.8-2.8 2.8z"/></g></g></svg>